<?xml version="1.0" encoding="UTF-8"?>
<svg xmlns="http://www.w3.org/2000/svg" xmlns:xlink="http://www.w3.org/1999/xlink" width="80px" height="80px" viewBox="0 0 80 80" version="1.1">
<g id="surface1">
<path style=" stroke:none;fill-rule:nonzero;fill:rgb(19.215686%,47.058824%,77.647059%);fill-opacity:1;" d="M 7.8125 0 L 72.1875 0 C 76.503906 0 80 3.496094 80 7.8125 L 80 72.1875 C 80 76.503906 76.503906 80 72.1875 80 L 7.8125 80 C 3.496094 80 0 76.503906 0 72.1875 L 0 7.8125 C 0 3.496094 3.496094 0 7.8125 0 Z M 7.8125 0 "/>
<path style=" stroke:none;fill-rule:nonzero;fill:rgb(19.215686%,47.058824%,77.647059%);fill-opacity:1;" d="M 7.8125 0 L 72.1875 0 C 76.503906 0 80 3.496094 80 7.8125 L 80 72.1875 C 80 76.503906 76.503906 80 72.1875 80 L 7.8125 80 C 3.496094 80 0 76.503906 0 72.1875 L 0 7.8125 C 0 3.496094 3.496094 0 7.8125 0 Z M 7.8125 0 "/>
<path style=" stroke:none;fill-rule:evenodd;fill:rgb(100%,100%,100%);fill-opacity:1;" d="M 49.523438 63.660156 L 49.523438 71.480469 C 50.792969 72.132812 52.296875 72.621094 54.035156 72.949219 C 55.769531 73.273438 57.597656 73.4375 59.523438 73.4375 C 61.398438 73.4375 63.179688 73.257812 64.867188 72.898438 C 66.554688 72.542969 68.035156 71.949219 69.304688 71.128906 C 70.578125 70.304688 71.582031 69.230469 72.324219 67.902344 C 73.066406 66.574219 73.4375 64.929688 73.4375 62.976562 C 73.4375 61.558594 73.226562 60.316406 72.800781 59.246094 C 72.378906 58.179688 71.765625 57.230469 70.96875 56.398438 C 70.167969 55.570312 69.210938 54.824219 68.09375 54.164062 C 66.976562 53.503906 65.71875 52.878906 64.316406 52.292969 C 63.289062 51.871094 62.367188 51.457031 61.554688 51.058594 C 60.738281 50.660156 60.046875 50.253906 59.472656 49.835938 C 58.902344 49.421875 58.464844 48.980469 58.152344 48.515625 C 57.84375 48.050781 57.6875 47.527344 57.6875 46.941406 C 57.6875 46.402344 57.828125 45.917969 58.105469 45.484375 C 58.382812 45.054688 58.773438 44.683594 59.277344 44.375 C 59.785156 44.0625 60.402344 43.824219 61.136719 43.652344 C 61.871094 43.480469 62.6875 43.394531 63.582031 43.394531 C 64.234375 43.394531 64.921875 43.445312 65.648438 43.542969 C 66.375 43.640625 67.105469 43.792969 67.835938 43.996094 C 68.570312 44.199219 69.285156 44.457031 69.976562 44.765625 C 70.671875 45.074219 71.308594 45.433594 71.898438 45.839844 L 71.898438 38.53125 C 70.707031 38.074219 69.40625 37.738281 67.996094 37.515625 C 66.585938 37.296875 64.96875 37.1875 63.140625 37.1875 C 61.285156 37.1875 59.523438 37.386719 57.859375 37.785156 C 56.199219 38.1875 54.734375 38.808594 53.472656 39.65625 C 52.207031 40.503906 51.210938 41.582031 50.476562 42.894531 C 49.742188 44.207031 49.375 45.773438 49.375 47.601562 C 49.375 49.929688 50.046875 51.917969 51.390625 53.566406 C 52.738281 55.210938 54.777344 56.605469 57.519531 57.746094 C 58.59375 58.183594 59.597656 58.617188 60.527344 59.039062 C 61.457031 59.464844 62.257812 59.902344 62.933594 60.359375 C 63.609375 60.816406 64.144531 61.3125 64.535156 61.851562 C 64.925781 62.390625 65.125 63 65.125 63.683594 C 65.125 64.191406 65 64.65625 64.757812 65.089844 C 64.511719 65.523438 64.140625 65.898438 63.644531 66.214844 C 63.148438 66.53125 62.527344 66.78125 61.785156 66.960938 C 61.042969 67.140625 60.175781 67.230469 59.179688 67.230469 C 57.484375 67.230469 55.804688 66.929688 54.144531 66.335938 C 52.480469 65.742188 50.941406 64.851562 49.523438 63.660156 Z M 36.371094 44.386719 L 46.40625 44.386719 L 46.40625 37.96875 L 18.4375 37.96875 L 18.4375 44.386719 L 28.421875 44.386719 L 28.421875 72.96875 L 36.371094 72.96875 Z M 36.371094 44.386719 "/>
</g>
</svg>
