<?xml version="1.0" encoding="UTF-8"?>
<svg xmlns="http://www.w3.org/2000/svg" xmlns:xlink="http://www.w3.org/1999/xlink" width="160px" height="80px" viewBox="0 0 160 80" version="1.1">
<defs>
<linearGradient id="linear0" gradientUnits="userSpaceOnUse" x1="7.294" y1="0.881" x2="42.237" y2="59.119" gradientTransform="matrix(1.333333,0,0,1.333333,1.777333,0)">
<stop offset="0" style="stop-color:rgb(13.72549%,51.372549%,68.235294%);stop-opacity:1;"/>
<stop offset="1" style="stop-color:rgb(42.745098%,84.313725%,72.54902%);stop-opacity:1;"/>
</linearGradient>
</defs>
<g id="surface1">
<path style=" stroke:none;fill-rule:evenodd;fill:url(#linear0);" d="M 23.152344 35.339844 C 24.703125 29.128906 28.585938 26.019531 34.796875 26.019531 C 44.117188 26.019531 45.28125 33.007812 49.941406 34.175781 C 53.046875 34.953125 55.765625 33.789062 58.09375 30.679688 C 56.542969 36.894531 52.65625 40 46.445312 40 C 37.125 40 35.964844 33.011719 31.304688 31.847656 C 28.199219 31.070312 25.480469 32.234375 23.152344 35.339844 Z M 11.503906 49.320312 C 13.058594 43.105469 16.9375 40 23.152344 40 C 32.46875 40 33.632812 46.988281 38.292969 48.152344 C 41.398438 48.929688 44.117188 47.765625 46.445312 44.660156 C 44.894531 50.875 41.007812 53.980469 34.796875 53.980469 C 25.476562 53.980469 24.316406 46.992188 19.65625 45.828125 C 16.550781 45.050781 13.832031 46.214844 11.503906 49.320312 Z M 11.503906 49.320312 "/>
<path style=" stroke:none;fill-rule:evenodd;fill:rgb(14.117647%,16.078431%,18.039216%);fill-opacity:1;" d="M 66.574219 36.769531 L 63.523438 36.769531 L 63.523438 34.945312 L 71.75 34.945312 L 71.75 36.769531 L 68.703125 36.769531 L 68.703125 45.054688 L 66.574219 45.054688 Z M 75.734375 44.121094 C 75.449219 44.441406 75.117188 44.714844 74.746094 44.929688 C 74.382812 45.136719 73.914062 45.238281 73.335938 45.238281 C 73.015625 45.242188 72.699219 45.199219 72.394531 45.113281 C 72.09375 45.027344 71.832031 44.894531 71.613281 44.714844 C 71.390625 44.539062 71.210938 44.308594 71.082031 44.03125 C 70.949219 43.75 70.882812 43.417969 70.882812 43.03125 C 70.882812 42.519531 70.996094 42.105469 71.222656 41.78125 C 71.453125 41.460938 71.757812 41.203125 72.117188 41.03125 C 72.484375 40.851562 72.898438 40.726562 73.355469 40.648438 C 73.820312 40.574219 74.285156 40.527344 74.753906 40.507812 L 75.703125 40.464844 L 75.703125 40.097656 C 75.703125 39.644531 75.578125 39.332031 75.328125 39.164062 C 75.074219 38.996094 74.78125 38.910156 74.441406 38.910156 C 73.65625 38.910156 73.207031 39.207031 73.097656 39.804688 L 71.28125 39.632812 C 71.414062 38.863281 71.753906 38.300781 72.300781 37.953125 C 72.851562 37.609375 73.589844 37.4375 74.515625 37.4375 C 75.082031 37.4375 75.566406 37.503906 75.960938 37.644531 C 76.359375 37.78125 76.679688 37.976562 76.921875 38.230469 C 77.164062 38.492188 77.347656 38.8125 77.445312 39.15625 C 77.554688 39.519531 77.609375 39.929688 77.609375 40.382812 L 77.609375 45.058594 L 75.734375 45.058594 Z M 75.691406 41.757812 L 74.8125 41.796875 C 74.394531 41.816406 74.058594 41.859375 73.804688 41.925781 C 73.550781 41.992188 73.351562 42.074219 73.21875 42.175781 C 73.085938 42.273438 72.988281 42.386719 72.941406 42.519531 C 72.894531 42.65625 72.871094 42.800781 72.871094 42.960938 C 72.871094 43.207031 72.957031 43.402344 73.125 43.542969 C 73.292969 43.679688 73.53125 43.753906 73.832031 43.753906 C 74.34375 43.753906 74.757812 43.636719 75.078125 43.398438 C 75.257812 43.265625 75.40625 43.097656 75.519531 42.898438 C 75.628906 42.695312 75.6875 42.441406 75.6875 42.140625 L 75.6875 41.757812 Z M 79.21875 37.664062 L 81.207031 37.664062 L 81.207031 45.054688 L 79.21875 45.054688 Z M 79.191406 34.941406 L 81.230469 34.941406 L 81.230469 36.726562 L 79.191406 36.726562 Z M 82.902344 34.941406 L 84.890625 34.941406 L 84.890625 45.054688 L 82.902344 45.054688 Z M 85.78125 37.664062 L 87.933594 37.664062 L 88.96875 42.5625 L 90.386719 37.734375 L 92.117188 37.734375 L 93.449219 42.578125 L 94.488281 37.675781 L 96.558594 37.675781 L 94.402344 45.070312 L 92.472656 45.070312 L 91.152344 40.199219 L 89.820312 45.070312 L 87.933594 45.070312 L 85.777344 37.675781 Z M 97.460938 37.664062 L 99.445312 37.664062 L 99.445312 45.054688 L 97.460938 45.054688 Z M 97.433594 34.941406 L 99.472656 34.941406 L 99.472656 36.726562 L 97.433594 36.726562 Z M 101.132812 37.664062 L 103.0625 37.664062 L 103.0625 38.683594 C 103.355469 38.25 103.703125 37.933594 104.101562 37.734375 C 104.5 37.535156 104.921875 37.4375 105.355469 37.4375 C 106.199219 37.4375 106.820312 37.65625 107.226562 38.09375 C 107.632812 38.535156 107.839844 39.226562 107.839844 40.167969 L 107.839844 45.054688 L 105.851562 45.054688 L 105.851562 40.441406 C 105.851562 39.90625 105.753906 39.566406 105.554688 39.378906 C 105.355469 39.1875 105.09375 39.09375 104.761719 39.09375 C 104.507812 39.09375 104.285156 39.132812 104.101562 39.207031 C 103.914062 39.28125 103.742188 39.390625 103.585938 39.535156 C 103.449219 39.667969 103.339844 39.824219 103.25 40.007812 C 103.160156 40.195312 103.117188 40.402344 103.117188 40.609375 L 103.117188 45.054688 L 101.117188 45.054688 L 101.117188 37.664062 Z M 114.570312 44.078125 C 114.066406 44.851562 113.195312 45.304688 112.273438 45.28125 C 111.234375 45.28125 110.460938 44.933594 109.949219 44.234375 C 109.433594 43.535156 109.183594 42.566406 109.183594 41.332031 C 109.175781 40.796875 109.25 40.265625 109.402344 39.753906 C 109.550781 39.277344 109.761719 38.867188 110.035156 38.519531 C 110.304688 38.179688 110.648438 37.90625 111.042969 37.722656 C 111.441406 37.535156 111.886719 37.4375 112.386719 37.4375 C 112.757812 37.4375 113.121094 37.503906 113.484375 37.636719 C 113.847656 37.773438 114.191406 38.039062 114.515625 38.402344 L 114.515625 34.949219 L 116.5 34.949219 L 116.5 45.058594 L 114.574219 45.058594 L 114.574219 44.082031 Z M 114.53125 41.273438 C 114.53125 40.800781 114.488281 40.425781 114.394531 40.140625 C 114.300781 39.855469 114.183594 39.628906 114.007812 39.449219 C 113.835938 39.277344 113.648438 39.179688 113.445312 39.113281 C 113.25 39.0625 113.046875 39.039062 112.84375 39.039062 C 112.632812 39.035156 112.421875 39.078125 112.226562 39.164062 C 112.035156 39.25 111.867188 39.382812 111.71875 39.5625 C 111.570312 39.738281 111.453125 39.976562 111.371094 40.269531 C 111.285156 40.558594 111.242188 40.90625 111.242188 41.316406 C 111.242188 41.757812 111.28125 42.128906 111.375 42.429688 C 111.46875 42.726562 111.566406 42.964844 111.710938 43.152344 C 111.851562 43.335938 112.015625 43.464844 112.207031 43.546875 C 112.394531 43.625 112.597656 43.679688 112.816406 43.679688 C 113.289062 43.679688 113.675781 43.542969 113.980469 43.269531 C 114.167969 43.078125 114.3125 42.839844 114.394531 42.582031 C 114.484375 42.3125 114.53125 41.964844 114.53125 41.542969 Z M 130.050781 41.558594 C 130.003906 42.097656 129.878906 42.59375 129.675781 43.050781 C 129.480469 43.5 129.195312 43.902344 128.839844 44.238281 C 128.464844 44.589844 128.019531 44.855469 127.535156 45.023438 C 127.019531 45.210938 126.421875 45.308594 125.742188 45.308594 C 124.976562 45.308594 124.300781 45.179688 123.71875 44.925781 C 123.15625 44.683594 122.65625 44.316406 122.261719 43.847656 C 121.867188 43.386719 121.570312 42.828125 121.375 42.167969 C 121.175781 41.511719 121.074219 40.789062 121.074219 39.996094 C 121.074219 39.175781 121.183594 38.4375 121.402344 37.785156 C 121.621094 37.132812 121.933594 36.578125 122.335938 36.117188 C 122.742188 35.652344 123.234375 35.296875 123.8125 35.054688 C 124.386719 34.808594 125.042969 34.683594 125.773438 34.683594 C 126.414062 34.683594 126.976562 34.765625 127.453125 34.925781 C 127.929688 35.085938 128.332031 35.316406 128.660156 35.617188 C 128.984375 35.921875 129.246094 36.285156 129.445312 36.710938 C 129.652344 37.164062 129.800781 37.644531 129.882812 38.140625 L 127.785156 38.410156 C 127.679688 37.816406 127.476562 37.347656 127.183594 37.007812 C 126.890625 36.667969 126.414062 36.496094 125.769531 36.496094 C 124.957031 36.496094 124.339844 36.800781 123.921875 37.410156 C 123.503906 38.019531 123.289062 38.878906 123.289062 39.996094 C 123.289062 41.117188 123.515625 41.996094 123.960938 42.585938 C 124.375 43.171875 125.054688 43.515625 125.769531 43.492188 C 126.425781 43.492188 126.902344 43.324219 127.210938 42.992188 C 127.515625 42.65625 127.707031 42.175781 127.785156 41.554688 Z M 133.140625 41.757812 C 133.1875 42.378906 133.390625 42.832031 133.742188 43.117188 C 134.09375 43.402344 134.617188 43.542969 135.308594 43.542969 C 135.636719 43.542969 135.917969 43.507812 136.144531 43.4375 C 136.371094 43.367188 136.554688 43.273438 136.699219 43.15625 C 136.835938 43.042969 136.941406 42.902344 137.003906 42.738281 C 137.066406 42.570312 137.097656 42.390625 137.09375 42.214844 C 137.09375 41.945312 136.996094 41.699219 136.796875 41.46875 C 136.601562 41.238281 136.234375 41.070312 135.707031 40.964844 L 134.386719 40.726562 C 133.851562 40.632812 133.40625 40.507812 133.007812 40.359375 C 132.613281 40.207031 132.277344 40.011719 132.007812 39.773438 C 131.738281 39.53125 131.535156 39.234375 131.394531 38.886719 C 131.253906 38.539062 131.179688 38.121094 131.179688 37.640625 C 131.171875 37.199219 131.269531 36.761719 131.46875 36.367188 C 131.664062 36 131.941406 35.683594 132.277344 35.445312 C 132.625 35.199219 133.039062 35.011719 133.519531 34.886719 C 134 34.757812 134.53125 34.695312 135.109375 34.695312 C 135.84375 34.695312 136.460938 34.78125 136.953125 34.949219 C 137.445312 35.117188 137.839844 35.339844 138.144531 35.621094 C 138.445312 35.902344 138.671875 36.222656 138.816406 36.59375 C 138.964844 36.960938 139.0625 37.34375 139.109375 37.738281 L 137.109375 37.992188 C 137.007812 37.433594 136.808594 37.03125 136.511719 36.789062 C 136.214844 36.542969 135.761719 36.421875 135.15625 36.421875 C 134.796875 36.421875 134.503906 36.449219 134.269531 36.511719 C 134.035156 36.574219 133.851562 36.65625 133.710938 36.753906 C 133.578125 36.839844 133.476562 36.957031 133.410156 37.101562 C 133.355469 37.234375 133.324219 37.371094 133.324219 37.511719 C 133.324219 37.886719 133.433594 38.171875 133.644531 38.359375 C 133.859375 38.546875 134.21875 38.695312 134.730469 38.800781 L 136.117188 39.070312 C 137.214844 39.285156 138.019531 39.636719 138.53125 40.121094 C 139.042969 40.605469 139.296875 41.324219 139.296875 42.226562 C 139.296875 42.667969 139.214844 43.078125 139.050781 43.453125 C 138.878906 43.828125 138.628906 44.164062 138.3125 44.429688 C 137.949219 44.726562 137.535156 44.949219 137.085938 45.082031 C 136.59375 45.238281 136.019531 45.316406 135.355469 45.316406 C 133.972656 45.316406 132.917969 45.019531 132.183594 44.429688 C 131.453125 43.835938 131.058594 42.960938 130.984375 41.761719 L 133.125 41.761719 Z M 142.339844 41.757812 C 142.386719 42.378906 142.589844 42.832031 142.941406 43.117188 C 143.292969 43.402344 143.820312 43.542969 144.507812 43.542969 C 144.839844 43.542969 145.117188 43.507812 145.347656 43.4375 C 145.578125 43.367188 145.757812 43.273438 145.902344 43.15625 C 146.039062 43.042969 146.140625 42.902344 146.207031 42.738281 C 146.269531 42.570312 146.300781 42.390625 146.296875 42.214844 C 146.292969 41.9375 146.1875 41.671875 146 41.46875 C 145.800781 41.238281 145.4375 41.070312 144.90625 40.964844 L 143.585938 40.726562 C 143.054688 40.632812 142.609375 40.507812 142.210938 40.359375 C 141.8125 40.207031 141.480469 40.011719 141.210938 39.773438 C 140.941406 39.53125 140.734375 39.234375 140.59375 38.886719 C 140.449219 38.539062 140.378906 38.121094 140.378906 37.640625 C 140.371094 37.199219 140.472656 36.761719 140.671875 36.367188 C 140.867188 35.996094 141.132812 35.6875 141.480469 35.433594 C 141.824219 35.175781 142.238281 35 142.71875 34.871094 C 143.199219 34.742188 143.730469 34.679688 144.308594 34.679688 C 145.046875 34.679688 145.660156 34.765625 146.152344 34.933594 C 146.644531 35.101562 147.039062 35.328125 147.34375 35.609375 C 147.648438 35.886719 147.871094 36.207031 148.015625 36.578125 C 148.164062 36.949219 148.261719 37.328125 148.3125 37.726562 L 146.3125 37.980469 C 146.207031 37.421875 146.007812 37.019531 145.710938 36.773438 C 145.414062 36.53125 144.960938 36.40625 144.355469 36.40625 C 143.996094 36.40625 143.703125 36.4375 143.46875 36.5 C 143.234375 36.5625 143.050781 36.640625 142.910156 36.738281 C 142.777344 36.824219 142.675781 36.945312 142.609375 37.085938 C 142.554688 37.21875 142.523438 37.355469 142.523438 37.496094 C 142.523438 37.875 142.632812 38.160156 142.84375 38.347656 C 143.058594 38.535156 143.417969 38.683594 143.929688 38.785156 L 145.332031 39.066406 C 146.429688 39.285156 147.234375 39.636719 147.746094 40.121094 C 148.257812 40.605469 148.511719 41.320312 148.511719 42.222656 C 148.515625 42.644531 148.433594 43.0625 148.265625 43.449219 C 148.09375 43.824219 147.84375 44.160156 147.523438 44.425781 C 147.199219 44.707031 146.792969 44.921875 146.296875 45.078125 C 145.804688 45.234375 145.230469 45.3125 144.570312 45.3125 C 143.1875 45.3125 142.132812 45.019531 141.398438 44.425781 C 140.664062 43.835938 140.269531 42.960938 140.214844 41.757812 Z M 142.339844 41.757812 "/>
</g>
</svg>
