<?xml version="1.0" encoding="UTF-8"?>
<svg xmlns="http://www.w3.org/2000/svg" xmlns:xlink="http://www.w3.org/1999/xlink" width="80px" height="80px" viewBox="0 0 80 80" version="1.1">
<g id="surface1">
<path style=" stroke:none;fill-rule:nonzero;fill:rgb(0%,0%,0%);fill-opacity:1;" d="M 46.183594 25.183594 L 46.183594 28.546875 L 39.089844 28.546875 L 39.089844 37.472656 C 39.089844 45.035156 39.128906 46.582031 39.382812 47.691406 C 40.417969 52.289062 43.835938 55.871094 48.546875 57.289062 C 49.871094 57.691406 50.164062 57.710938 59.507812 57.78125 L 69.089844 57.835938 L 69.089844 51.089844 L 76.183594 51.089844 L 76.183594 42.128906 C 76.183594 32.5625 76.128906 31.910156 75.238281 29.691406 C 74.054688 26.761719 71.492188 24.199219 68.453125 22.871094 C 66.199219 21.890625 65.382812 21.816406 55.363281 21.816406 L 46.183594 21.816406 Z M 55.183594 37.183594 C 50.382812 41.925781 46.398438 45.800781 46.328125 45.816406 C 46.238281 45.816406 46.183594 41.925781 46.183594 37.183594 L 46.183594 28.546875 L 55.054688 28.546875 L 63.910156 28.5625 Z M 69.089844 42.636719 L 69.089844 51.089844 L 51.726562 51.089844 L 55.183594 47.691406 C 57.089844 45.800781 60.925781 42 63.746094 39.238281 C 66.546875 36.453125 68.910156 34.183594 68.964844 34.183594 C 69.035156 34.183594 69.089844 37.980469 69.089844 42.636719 Z M 69.089844 42.636719 "/>
<path style=" stroke:none;fill-rule:nonzero;fill:rgb(0%,0%,0%);fill-opacity:1;" d="M 3.945312 28.78125 C 4.019531 28.925781 9.746094 35.34375 16.636719 43.074219 C 26.472656 54.074219 29.34375 57.183594 29.945312 57.472656 C 31.964844 58.453125 34.546875 57.546875 35.472656 55.546875 C 35.800781 54.855469 35.816406 54.074219 35.816406 41.671875 L 35.816406 28.546875 L 28.363281 28.546875 L 28.328125 36.691406 L 28.273438 44.835938 L 13.726562 28.546875 L 8.761719 28.546875 C 4.65625 28.546875 3.816406 28.582031 3.945312 28.78125 Z M 3.945312 28.78125 "/>
</g>
</svg>
